<mxfile host="app.diagrams.net" modified="2023-12-05T19:30:30.293Z" agent="Mozilla/5.0 (Macintosh; Intel Mac OS X 10_15_7) AppleWebKit/605.1.15 (KHTML, like Gecko) Version/17.1.2 Safari/605.1.15" etag="CLcZN7OwkS703-qoG1wb" version="22.1.5" type="onedrive">
  <diagram name="第 1 页" id="ip4ISMtrA4-Ol3IgD39S">
    <mxGraphModel grid="1" page="1" gridSize="10" guides="1" tooltips="1" connect="1" arrows="1" fold="1" pageScale="1" pageWidth="827" pageHeight="1169" math="0" shadow="0">
      <root>
        <mxCell id="0" />
        <mxCell id="1" parent="0" />
        <mxCell id="tiDe9Tn2DnHth_jwY6EA-1" value="Student" style="whiteSpace=wrap;html=1;align=center;" vertex="1" parent="1">
          <mxGeometry x="240" y="120" width="100" height="40" as="geometry" />
        </mxCell>
        <mxCell id="tiDe9Tn2DnHth_jwY6EA-2" value="ID" style="ellipse;whiteSpace=wrap;html=1;align=center;fontStyle=4;" vertex="1" parent="1">
          <mxGeometry x="120" y="120" width="100" height="40" as="geometry" />
        </mxCell>
        <mxCell id="tiDe9Tn2DnHth_jwY6EA-4" value="Name" style="ellipse;whiteSpace=wrap;html=1;align=center;" vertex="1" parent="1">
          <mxGeometry x="120" y="70" width="100" height="40" as="geometry" />
        </mxCell>
        <mxCell id="tiDe9Tn2DnHth_jwY6EA-6" value="FName" style="ellipse;whiteSpace=wrap;html=1;align=center;" vertex="1" parent="1">
          <mxGeometry x="10" y="45" width="100" height="40" as="geometry" />
        </mxCell>
        <mxCell id="tiDe9Tn2DnHth_jwY6EA-7" value="LName" style="ellipse;whiteSpace=wrap;html=1;align=center;" vertex="1" parent="1">
          <mxGeometry x="10" y="95" width="100" height="40" as="geometry" />
        </mxCell>
        <mxCell id="tiDe9Tn2DnHth_jwY6EA-8" value="Class" style="whiteSpace=wrap;html=1;align=center;" vertex="1" parent="1">
          <mxGeometry x="620" y="370" width="100" height="40" as="geometry" />
        </mxCell>
        <mxCell id="tiDe9Tn2DnHth_jwY6EA-9" value="Class ID" style="ellipse;whiteSpace=wrap;html=1;align=center;fontStyle=4;" vertex="1" parent="1">
          <mxGeometry x="620" y="435" width="100" height="40" as="geometry" />
        </mxCell>
        <mxCell id="tiDe9Tn2DnHth_jwY6EA-10" value="Session" style="shape=ext;margin=3;double=1;whiteSpace=wrap;html=1;align=center;" vertex="1" parent="1">
          <mxGeometry x="620" y="120" width="100" height="40" as="geometry" />
        </mxCell>
        <mxCell id="tiDe9Tn2DnHth_jwY6EA-11" value="&lt;span style=&quot;border-bottom: 1px dotted&quot;&gt;Session ID&lt;/span&gt;" style="ellipse;whiteSpace=wrap;html=1;align=center;" vertex="1" parent="1">
          <mxGeometry x="620" y="55" width="100" height="40" as="geometry" />
        </mxCell>
        <mxCell id="tiDe9Tn2DnHth_jwY6EA-12" value="takes" style="shape=rhombus;perimeter=rhombusPerimeter;whiteSpace=wrap;html=1;align=center;" vertex="1" parent="1">
          <mxGeometry x="414" y="110" width="120" height="60" as="geometry" />
        </mxCell>
        <mxCell id="tiDe9Tn2DnHth_jwY6EA-13" value="offers" style="shape=rhombus;perimeter=rhombusPerimeter;whiteSpace=wrap;html=1;align=center;" vertex="1" parent="1">
          <mxGeometry x="610" y="230" width="120" height="60" as="geometry" />
        </mxCell>
      </root>
    </mxGraphModel>
  </diagram>
</mxfile>
